<svg width="33" height="32" viewBox="0 0 33 32" fill="none" xmlns="http://www.w3.org/2000/svg">
<g id="Group 15">
<g id="Group 13">
<path id="Vector" d="M5.58203 22.298C5.31891 22.1226 5.10483 21.876 4.96697 21.5772C4.71338 21.0284 4.76129 20.4023 5.09483 19.9021L6.49457 17.8029C6.25012 14.8982 7.17792 12.093 9.12325 9.87669C12.244 6.32053 17.6093 5.27787 21.8799 7.3976C24.8882 8.89037 27.0077 11.6055 27.6989 14.8475C28.3903 18.0895 27.5584 21.4074 25.4169 23.9511C22.3152 27.6349 16.8901 28.7495 12.5176 26.6021C10.7752 25.7447 9.30193 24.4444 8.23677 22.8218L6.33036 22.5767C6.0573 22.5415 5.80216 22.4448 5.58203 22.298Z" fill="url(#paint0_linear_204_1317)"/>
</g>
<g id="Group 14">
<g id="Vector_2" filter="url(#filter0_bd_204_1317)">
<path d="M5.41115 25.6832C5.06603 25.6832 4.72237 25.5882 4.41628 25.3988C3.8538 25.0513 3.51826 24.4491 3.51826 23.7878V21.0124C1.53773 18.5032 0.681808 15.3697 1.10625 12.1542C1.78672 6.99513 6.02694 2.76666 11.1878 2.10046C14.8229 1.63085 18.3911 2.82231 20.9814 5.36749C23.572 7.91267 24.8254 11.4569 24.421 15.0918C23.8351 20.356 19.5842 24.6867 14.314 25.3898C12.213 25.6684 10.0881 25.3775 8.13864 24.5425L6.2593 25.4816C5.99008 25.616 5.69989 25.6832 5.41115 25.6832Z" fill="#00F0FF"/>
</g>
<path id="Vector_3" d="M6.91599 16.4015L10.7679 10.9193C10.9284 10.6385 11.2984 10.5621 11.557 10.7559L14.1374 12.6911C14.3123 12.8223 14.549 12.8344 14.7364 12.722L17.8785 10.501C18.3397 10.2243 18.8761 10.7212 18.6358 11.2022L15.5251 16.5844C15.385 16.8645 15.0363 16.966 14.7678 16.8048L11.323 14.7379C11.1654 14.6434 10.9705 14.6359 10.806 14.7181L7.62284 17.1487C7.14745 17.3867 6.65218 16.8632 6.91599 16.4015V16.4015Z" fill="white"/>
</g>
</g>
<defs>
<filter id="filter0_bd_204_1317" x="-3" y="-2" width="32.4956" height="31.6832" filterUnits="userSpaceOnUse" color-interpolation-filters="sRGB">
<feFlood flood-opacity="0" result="BackgroundImageFix"/>
<feGaussianBlur in="BackgroundImageFix" stdDeviation="2"/>
<feComposite in2="SourceAlpha" operator="in" result="effect1_backgroundBlur_204_1317"/>
<feColorMatrix in="SourceAlpha" type="matrix" values="0 0 0 0 0 0 0 0 0 0 0 0 0 0 0 0 0 0 127 0" result="hardAlpha"/>
<feOffset dx="2" dy="1"/>
<feGaussianBlur stdDeviation="1.5"/>
<feColorMatrix type="matrix" values="0 0 0 0 0 0 0 0 0 0 0 0 0 0 0 0 0 0 0.1 0"/>
<feBlend mode="normal" in2="effect1_backgroundBlur_204_1317" result="effect2_dropShadow_204_1317"/>
<feBlend mode="normal" in="SourceGraphic" in2="effect2_dropShadow_204_1317" result="shape"/>
</filter>
<linearGradient id="paint0_linear_204_1317" x1="25.7596" y1="13.8416" x2="0.546989" y2="29.9578" gradientUnits="userSpaceOnUse">
<stop stop-color="#00F0FF"/>
<stop offset="1" stop-color="#0500FF" stop-opacity="0.1"/>
</linearGradient>
</defs>
</svg>
