<svg width="36" height="33" viewBox="0 0 36 33" fill="none" xmlns="http://www.w3.org/2000/svg">
<g id="Group 27">
<g id="Group 26">
<g id="Union" filter="url(#filter0_b_204_1295)">
<path fill-rule="evenodd" clip-rule="evenodd" d="M25.5262 7.12855C25.419 6.44657 24.7792 5.98064 24.0972 6.08786C23.4153 6.19508 22.9493 6.83486 23.0566 7.51684L23.4253 9.86194L20.9 8.46562C18.9667 7.39663 16.5329 8.09728 15.4639 10.0306L10.5706 18.8801C9.50164 20.8134 10.2023 23.2472 12.1356 24.3162L20.9851 29.2095C22.9184 30.2785 25.3522 29.5778 26.4212 27.6446L31.3145 18.795C32.3835 16.8617 31.6828 14.4279 29.7496 13.3589L27.2244 11.9626L29.4066 11.028C30.0412 10.7562 30.3353 10.0215 30.0635 9.38685C29.7917 8.75225 29.057 8.45814 28.4224 8.72994L25.9448 9.79104L25.5262 7.12855Z" fill="url(#paint0_linear_204_1295)" fill-opacity="0.4"/>
</g>
</g>
<g id="Group 25">
<g id="Union_2" filter="url(#filter1_bd_204_1295)">
<path fill-rule="evenodd" clip-rule="evenodd" d="M8.44075 3.67863C7.92872 3.21557 7.13826 3.25527 6.6752 3.76729C6.21215 4.27932 6.25184 5.06978 6.76387 5.53283L8.94399 7.50445L6.66208 7.90681C3.39872 8.48223 1.21971 11.5942 1.79513 14.8575L3.38818 23.8922C3.9636 27.1555 7.07554 29.3346 10.3389 28.7591L19.3735 27.1661C22.6369 26.5907 24.8159 23.4787 24.2405 20.2154L22.6475 11.1807C22.072 7.91735 18.9601 5.73834 15.6967 6.31376L13.4149 6.71611L14.7892 4.11775C15.112 3.5075 14.8789 2.75113 14.2687 2.42836C13.6584 2.10559 12.902 2.33864 12.5793 2.94889L10.9791 5.97424L8.44075 3.67863Z" fill="#FFC700"/>
</g>
</g>
<path id="Vector 10" d="M6.93574 18.609L12.7113 15.7989L13.1709 18.4055L18.1541 16.183" stroke="white" stroke-width="2" stroke-linecap="round" stroke-linejoin="round"/>
</g>
<defs>
<filter id="filter0_b_204_1295" x="6.0704" y="2.07251" width="29.7443" height="31.6372" filterUnits="userSpaceOnUse" color-interpolation-filters="sRGB">
<feFlood flood-opacity="0" result="BackgroundImageFix"/>
<feGaussianBlur in="BackgroundImageFix" stdDeviation="2"/>
<feComposite in2="SourceAlpha" operator="in" result="effect1_backgroundBlur_204_1295"/>
<feBlend mode="normal" in="SourceGraphic" in2="effect1_backgroundBlur_204_1295" result="shape"/>
</filter>
<filter id="filter1_bd_204_1295" x="-2.29703" y="-1.71692" width="31.6297" height="34.5682" filterUnits="userSpaceOnUse" color-interpolation-filters="sRGB">
<feFlood flood-opacity="0" result="BackgroundImageFix"/>
<feGaussianBlur in="BackgroundImageFix" stdDeviation="2"/>
<feComposite in2="SourceAlpha" operator="in" result="effect1_backgroundBlur_204_1295"/>
<feColorMatrix in="SourceAlpha" type="matrix" values="0 0 0 0 0 0 0 0 0 0 0 0 0 0 0 0 0 0 127 0" result="hardAlpha"/>
<feOffset dx="2" dy="1"/>
<feGaussianBlur stdDeviation="1.5"/>
<feColorMatrix type="matrix" values="0 0 0 0 1 0 0 0 0 0 0 0 0 0 0 0 0 0 0.1 0"/>
<feBlend mode="normal" in2="effect1_backgroundBlur_204_1295" result="effect2_dropShadow_204_1295"/>
<feBlend mode="normal" in="SourceGraphic" in2="effect2_dropShadow_204_1295" result="shape"/>
</filter>
<linearGradient id="paint0_linear_204_1295" x1="28.0697" y1="17.3849" x2="12.2939" y2="22.2563" gradientUnits="userSpaceOnUse">
<stop stop-color="#FFC700"/>
<stop offset="1" stop-color="#FF6B00"/>
</linearGradient>
</defs>
</svg>
