<svg width="35" height="34" viewBox="0 0 35 34" fill="none" xmlns="http://www.w3.org/2000/svg">
<g id="Group 22">
<g id="Group 20">
<g id="Rectangle 14" filter="url(#filter0_b_204_1305)">
<path d="M13.1003 12.4064C14.099 8.67167 17.9363 6.45366 21.671 7.45238L27.5203 9.01655C31.2551 10.0153 33.4731 13.8525 32.4744 17.5873L30.8632 23.6125C29.8645 27.3473 26.0272 29.5653 22.2924 28.5666L16.4431 27.0024C12.7084 26.0037 10.4904 22.1665 11.4891 18.4317L13.1003 12.4064Z" fill="url(#paint0_linear_204_1305)"/>
</g>
</g>
<g id="Group 21">
<g id="Rectangle 14_2" filter="url(#filter1_b_204_1305)">
<path d="M1.9602 14.4631C0.877613 10.7518 3.00862 6.86555 6.71994 5.78297L16.3276 2.98043C20.0389 1.89784 23.9251 4.02885 25.0077 7.74017L27.8713 17.5571C28.9539 21.2685 26.8229 25.1547 23.1116 26.2373L13.5039 29.0398C9.79261 30.1224 5.90638 27.9914 4.8238 24.2801L1.9602 14.4631Z" fill="#3835DC"/>
</g>
<g id="Group">
<g id="Vector" filter="url(#filter2_bd_204_1305)">
<path d="M6.65077 5.80315L16.466 2.94004C18.2924 2.40728 20.1728 2.67204 21.7296 3.52409C23.2887 4.37748 24.5235 5.82249 25.0568 7.65079L27.9613 17.608C28.4935 19.4325 28.2288 21.3129 27.3767 22.8696L27.3741 22.8745C26.5182 24.4324 25.0745 25.6647 23.2519 26.1964L13.4348 29.06C11.6065 29.5933 9.7242 29.3291 8.16746 28.4771L8.10713 28.4392C6.57988 27.5827 5.37011 26.153 4.84397 24.3493L1.94002 14.3939C1.40615 12.5637 1.66902 10.6839 2.52296 9.12663C3.3769 7.56933 4.82057 6.33701 6.65077 5.80315ZM19.0322 8.56205L19.0515 8.579L23.1396 7.38651C22.6614 6.35951 21.8669 5.54388 20.9129 5.01916C19.7394 4.37569 18.322 4.17716 16.9441 4.57908L15.2654 5.06878L19.0322 8.56205ZM17.1475 9.1344L13.3614 5.62417L7.77805 7.25281L11.5945 10.7542L17.1475 9.1344ZM9.68857 11.3102L5.99762 7.92208C5.1513 8.40718 4.47304 9.1164 4.01914 9.94705C3.49632 10.9005 3.26742 12.0167 3.41445 13.1403L9.68857 11.3102ZM23.6745 9.00898L3.83577 14.7959L6.48356 23.873C6.8794 25.2301 7.78689 26.3064 8.93465 26.9533L8.98788 26.9809C10.1614 27.6244 11.5813 27.8242 12.9572 27.4229L22.7725 24.5598C24.1503 24.1578 25.2387 23.2284 25.8809 22.0573L25.8836 22.0524C26.5257 20.8814 26.7242 19.464 26.3223 18.0861L23.6745 9.00898Z" fill="#3835DA"/>
</g>
</g>
</g>
<g id="Vector_2" filter="url(#filter3_bd_204_1305)">
<path d="M18.6871 14.8692L11.6767 13.3305C11.2757 13.1948 10.8395 13.4104 10.7026 13.8138C10.6512 13.9685 10.6507 14.1288 10.6932 14.2745L10.6894 14.2756L12.5383 20.6141C12.6576 21.0229 13.0854 21.2575 13.4942 21.1383C13.674 21.0858 13.8186 20.9759 13.915 20.8348L19.0706 16.0923C19.3382 15.7636 19.2892 15.2789 18.9606 15.0112C18.8777 14.9451 18.784 14.8985 18.6871 14.8692Z" fill="white"/>
</g>
</g>
<defs>
<filter id="filter0_b_204_1305" x="7.24976" y="3.21301" width="29.464" height="29.5929" filterUnits="userSpaceOnUse" color-interpolation-filters="sRGB">
<feFlood flood-opacity="0" result="BackgroundImageFix"/>
<feGaussianBlur in="BackgroundImageFix" stdDeviation="2"/>
<feComposite in2="SourceAlpha" operator="in" result="effect1_backgroundBlur_204_1305"/>
<feBlend mode="normal" in="SourceGraphic" in2="effect1_backgroundBlur_204_1305" result="shape"/>
</filter>
<filter id="filter1_b_204_1305" x="-3.32169" y="-2.30139" width="36.4749" height="36.623" filterUnits="userSpaceOnUse" color-interpolation-filters="sRGB">
<feFlood flood-opacity="0" result="BackgroundImageFix"/>
<feGaussianBlur in="BackgroundImageFix" stdDeviation="2.5"/>
<feComposite in2="SourceAlpha" operator="in" result="effect1_backgroundBlur_204_1305"/>
<feBlend mode="normal" in="SourceGraphic" in2="effect1_backgroundBlur_204_1305" result="shape"/>
</filter>
<filter id="filter2_bd_204_1305" x="-2.33655" y="-1.33533" width="35.5728" height="34.6713" filterUnits="userSpaceOnUse" color-interpolation-filters="sRGB">
<feFlood flood-opacity="0" result="BackgroundImageFix"/>
<feGaussianBlur in="BackgroundImageFix" stdDeviation="2"/>
<feComposite in2="SourceAlpha" operator="in" result="effect1_backgroundBlur_204_1305"/>
<feColorMatrix in="SourceAlpha" type="matrix" values="0 0 0 0 0 0 0 0 0 0 0 0 0 0 0 0 0 0 127 0" result="hardAlpha"/>
<feOffset dx="2" dy="1"/>
<feGaussianBlur stdDeviation="1.5"/>
<feColorMatrix type="matrix" values="0 0 0 0 0 0 0 0 0 0.0779167 0 0 0 0 0.229167 0 0 0 0.1 0"/>
<feBlend mode="normal" in2="effect1_backgroundBlur_204_1305" result="effect2_dropShadow_204_1305"/>
<feBlend mode="normal" in="SourceGraphic" in2="effect2_dropShadow_204_1305" result="shape"/>
</filter>
<filter id="filter3_bd_204_1305" x="6.66257" y="9.28992" width="17.5806" height="15.8794" filterUnits="userSpaceOnUse" color-interpolation-filters="sRGB">
<feFlood flood-opacity="0" result="BackgroundImageFix"/>
<feGaussianBlur in="BackgroundImageFix" stdDeviation="2"/>
<feComposite in2="SourceAlpha" operator="in" result="effect1_backgroundBlur_204_1305"/>
<feColorMatrix in="SourceAlpha" type="matrix" values="0 0 0 0 0 0 0 0 0 0 0 0 0 0 0 0 0 0 127 0" result="hardAlpha"/>
<feOffset dx="2" dy="1"/>
<feGaussianBlur stdDeviation="1.5"/>
<feColorMatrix type="matrix" values="0 0 0 0 0 0 0 0 0 0.0779167 0 0 0 0 0.229167 0 0 0 0.1 0"/>
<feBlend mode="normal" in2="effect1_backgroundBlur_204_1305" result="effect2_dropShadow_204_1305"/>
<feBlend mode="normal" in="SourceGraphic" in2="effect2_dropShadow_204_1305" result="shape"/>
</filter>
<linearGradient id="paint0_linear_204_1305" x1="33.9709" y1="9.43224" x2="7.34592" y2="24.1333" gradientUnits="userSpaceOnUse">
<stop stop-color="#0029FF"/>
<stop offset="1" stop-color="#6100FF" stop-opacity="0"/>
</linearGradient>
</defs>
</svg>
